<svg xmlns="http://www.w3.org/2000/svg" viewBox="0 0 396.77 396.77">
  <defs>
    <style>
      .cls-1 {
        fill: #0079f4;
        opacity: 0.043;
      }
    </style>
  </defs>
  <path id="enter" class="cls-1" d="M396.77,62v272.78a62.064,62.064,0,0,1-62,62H179.012a62.064,62.064,0,0,1-62-62v-31a15.5,15.5,0,0,1,31,0v31a31.034,31.034,0,0,0,31,31H334.775a31.034,31.034,0,0,0,31-31V62a31.034,31.034,0,0,0-31-31H179.012a31.034,31.034,0,0,0-31,31v31a15.5,15.5,0,1,1-31,0V62a62.064,62.064,0,0,1,62-62H334.775A62.064,62.064,0,0,1,396.77,62ZM175.07,238.528A15.5,15.5,0,0,0,196.9,260.535l34.984-34.709a38.618,38.618,0,0,0,0-54.882L196.9,136.235a15.5,15.5,0,1,0-21.832,22l24.841,24.647H15.5a15.5,15.5,0,0,0,0,31H199.911Zm0,0"/>
</svg>
